# xmcd
#
# Track frame offsets:
#	150
#	17602
#	31096
#	47015
#	62728
#	75837
#	89421
#	107211
#	125293
#	141098
#	157291
#	179180
#	194943
#	210213
#
# Disc length: 3005 seconds
#
# Revision: 1
# Processed by: cddbd v1.5.2PL0 Copyright (c) Steve Scherf et al.
# Submitted via: EasyCDDAExtractor 10.0.3.1
#
DISCID=c00bbb0e
DTITLE=Various Artist - HC 2009 - 15
DYEAR=2009
DGENRE=Country
TTITLE0=Darius Rucker - Alright
TTITLE1=Reba Mc Entire - Strange
TTITLE2=Kate and Kacey - Dreaming Love
TTITLE3=Megan Mullins - Long Past Gone
TTITLE4=Mitchell John - Peace In The Little Things
TTITLE5=Mac Mcanally - You First
TTITLE6=Frank Ortega - Honky Tonk And The Altar
TTITLE7=Due West - I Get That All The Time
TTITLE8=Codie Prevost - One Of Those Days
TTITLE9=Kaylah Marin - Loving Life
TTITLE10=Paula Atherton - There Ain't Nothin'
TTITLE11=Lin Rountree Feat. Bamm Davis - Seldom Sunday
TTITLE12=Vernon Neilly - Isn't She Lovely ( Smooth Single )
TTITLE13=Vernon Neilly - Isn't She Lovely ( Vocal Single )
EXTD=
EXTT0=
EXTT1=
EXTT2=
EXTT3=
EXTT4=
EXTT5=
EXTT6=
EXTT7=
EXTT8=
EXTT9=
EXTT10=
EXTT11=
EXTT12=
EXTT13=
PLAYORDER=
